<?xml version="1.0" standalone="no"?><!DOCTYPE svg PUBLIC "-//W3C//DTD SVG 1.1//EN" "http://www.w3.org/Graphics/SVG/1.1/DTD/svg11.dtd"><svg t="1644308762341" class="icon" viewBox="0 0 1092 1024" version="1.1" xmlns="http://www.w3.org/2000/svg" p-id="7182" xmlns:xlink="http://www.w3.org/1999/xlink" width="213.28125" height="200"><defs><style type="text/css"></style></defs><path d="M1079.569067 498.346667l-526.199467 258.2528a21.2992 21.2992 0 0 1-16.384 0L10.922667 499.5072a18.6368 18.6368 0 0 1 0-33.723733l89.2928-43.4176a21.640533 21.640533 0 0 1 16.315733 0l20.6848 9.762133a18.705067 18.705067 0 0 1 0 33.655467l-33.655467 16.315733 434.722134 212.718933a21.640533 21.640533 0 0 0 16.384 0l433.288533-213.879466-33.655467-16.247467a18.6368 18.6368 0 0 1 0-33.655467l20.6848-9.8304a18.432 18.432 0 0 1 15.223467 0l89.429333 43.4176a18.705067 18.705067 0 0 1 0 33.655467V498.346667zM10.6496 676.522667l89.429333-43.4176a21.640533 21.640533 0 0 1 16.247467 0l20.753067 9.762133a18.705067 18.705067 0 0 1 0 33.655467l-33.723734 16.247466 434.7904 212.7872a21.640533 21.640533 0 0 0 16.315734 0l433.493333-213.8112-33.723733-16.315733a18.705067 18.705067 0 0 1 0-33.655467l20.6848-9.762133a18.0224 18.0224 0 0 1 15.223466 0l89.429334 43.4176a18.6368 18.6368 0 0 1 0 33.723733l-526.336 258.184534a21.162667 21.162667 0 0 1-16.315734 0L10.6496 710.178133a18.6368 18.6368 0 0 1 0-33.655466z" fill="#A4CFFE" p-id="7183"></path><path d="M557.533867 548.317867a28.0576 28.0576 0 0 1-22.869334 0L23.825067 298.734933a25.668267 25.668267 0 0 1 0-45.602133L533.845333 2.4576a28.0576 28.0576 0 0 1 22.869334 0l510.7712 250.6752a24.234667 24.234667 0 0 1 1.092266 44.509867L557.533867 548.317867z" fill="#007AFF" p-id="7184"></path></svg>
