<?xml version="1.0" standalone="no"?><!DOCTYPE svg PUBLIC "-//W3C//DTD SVG 1.1//EN" "http://www.w3.org/Graphics/SVG/1.1/DTD/svg11.dtd"><svg t="1644376093713" class="icon" viewBox="0 0 1024 1024" version="1.1" xmlns="http://www.w3.org/2000/svg" p-id="3442" xmlns:xlink="http://www.w3.org/1999/xlink" width="200" height="200"><defs><style type="text/css"></style></defs><path d="M976.895419 715.776385H627.711855c-25.599968 0-46.079942-20.479974-46.079942-46.079942 0-25.599968 20.479974-46.079942 46.079942-46.079943h349.183564c25.599968 0 46.079942 20.479974 46.079942 46.079943 0 25.599968-20.479974 46.079942-46.079942 46.079942z m0 154.623807H627.711855c-25.599968 0-46.079942-20.479974-46.079942-46.079942 0-25.599968 20.479974-46.079942 46.079942-46.079943h349.183564c25.599968 0 46.079942 20.479974 46.079942 46.079943 0 25.599968-20.479974 46.079942-46.079942 46.079942z m0 153.599808H627.711855c-25.599968 0-46.079942-20.479974-46.079942-46.079942 0-25.599968 20.479974-46.079942 46.079942-46.079943h349.183564c25.599968 0 46.079942 20.479974 46.079942 46.079943 0 25.599968-20.479974 46.079942-46.079942 46.079942z" fill="#A4CFFE" p-id="3443"></path><path d="M999.423391 331.776865L911.359501 180.225055a64.38392 64.38392 0 0 0-83.967895-24.57597l-71.679911 28.671965a353.215558 353.215558 0 0 0-88.06389-49.151939l-10.239987-74.751907A63.167921 63.167921 0 0 0 593.919898 0.00128H415.74412c-33.791958 0-61.439923 25.599968-63.48792 59.391926l-10.239988 74.751906a495.359381 495.359381 0 0 0-88.063889 49.151939l-71.679911-28.671964a64.38392 64.38392 0 0 0-83.967895 24.575969L9.216628 331.776865A62.655922 62.655922 0 0 0 30.720602 415.74476l60.415924 46.079943a403.007496 403.007496 0 0 0 0 99.327876l-61.439923 46.079942a61.439923 61.439923 0 0 0-20.479975 83.967895l89.087889 151.551811c17.407978 28.671964 54.271932 39.93595 84.991894 24.575969l70.655912-28.671964c26.623967 20.479974 56.31993 36.863954 87.039891 49.151938l10.239987 74.751907a62.335922 62.335922 0 0 0 63.487921 59.391926h70.655911c10.239987 0 17.407978-8.19199 18.431977-17.407979V718.848381C390.144152 719.87238 296.960269 626.688497 296.960269 512.00064a207.99974 207.99974 0 0 1 207.87174-207.87174 207.99974 207.99974 0 0 1 202.751747 253.951682h198.655751c7.167991 0 13.311983-6.143992 14.335982-13.311983a365.567543 365.567543 0 0 0-2.047997-81.919898l60.415924-46.079942a62.847921 62.847921 0 0 0 20.479975-84.991894z" fill="#007AFF" p-id="3444"></path></svg>
