<?xml version="1.0" standalone="no"?><!DOCTYPE svg PUBLIC "-//W3C//DTD SVG 1.1//EN" "http://www.w3.org/Graphics/SVG/1.1/DTD/svg11.dtd"><svg t="1643334907570" class="icon" viewBox="0 0 1024 1024" version="1.1" xmlns="http://www.w3.org/2000/svg" p-id="6902" xmlns:xlink="http://www.w3.org/1999/xlink" width="200" height="200"><defs><style type="text/css"></style></defs><path d="M0 0m128 0l768 0q128 0 128 128l0 768q0 128-128 128l-768 0q-128 0-128-128l0-768q0-128 128-128Z" fill="#007AFF" p-id="6903"></path><path d="M192 424.704m58.176 0l0 0q58.176 0 58.176 58.176l0 232.768q0 58.176-58.176 58.176l0 0q-58.176 0-58.176-58.176l0-232.768q0-58.176 58.176-58.176Z" fill="#FFFFFF" p-id="6904"></path><path d="M541.12 424.704m58.176 0l0 0q58.176 0 58.176 58.176l0 232.768q0 58.176-58.176 58.176l0 0q-58.176 0-58.176-58.176l0-232.768q0-58.176 58.176-58.176Z" fill="#FFFFFF" p-id="6905"></path><path d="M366.528 192m58.176 0l0 0q58.176 0 58.176 58.176l0 465.472q0 58.176-58.176 58.176l0 0q-58.176 0-58.176-58.176l0-465.472q0-58.176 58.176-58.176Z" fill="#A4CFFE" p-id="6906" data-spm-anchor-id="a313x.7781069.0.i2" class="selected"></path><path d="M715.648 192m58.176 0l0 0q58.176 0 58.176 58.176l0 465.472q0 58.176-58.176 58.176l0 0q-58.176 0-58.176-58.176l0-465.472q0-58.176 58.176-58.176Z" fill="#A4CFFE" p-id="6907" data-spm-anchor-id="a313x.7781069.0.i1" class="selected"></path></svg>
