<?xml version="1.0" standalone="no"?><!DOCTYPE svg PUBLIC "-//W3C//DTD SVG 1.1//EN" "http://www.w3.org/Graphics/SVG/1.1/DTD/svg11.dtd"><svg t="1644302765096" class="icon" viewBox="0 0 1024 1024" version="1.1" xmlns="http://www.w3.org/2000/svg" p-id="7050" xmlns:xlink="http://www.w3.org/1999/xlink" width="200" height="200"><defs><style type="text/css"></style></defs><path d="M863.171765 0.963765a36.141176 36.141176 0 0 1 36.141176 36.201411l0.060235 589.824a217.088 217.088 0 0 0-195.403294 387.011765H67.282824a36.141176 36.141176 0 0 1-36.141177-36.201412V37.165176a36.141176 36.141176 0 0 1 36.141177-36.141176H863.171765zM501.398588 796.912941H212.028235a36.141176 36.141176 0 1 0 0 72.282353h289.430589a36.141176 36.141176 0 0 0 0-72.282353z m-72.342588-180.886588H211.968a36.141176 36.141176 0 1 0 0 72.282353h217.088a36.141176 36.141176 0 0 0 0-72.282353z m-72.342588-542.72L293.285647 203.233882l-142.998588 20.178824 103.845647 100.352-24.997647 142.336 127.578353-67.764706L484.291765 466.040471l-24.997647-142.275765 103.845647-100.412235-143.058824-20.178824-63.367529-129.807059z" fill="#007AFF" p-id="7051"></path><path d="M883.952941 670.358588l4.397177 0.963765s6.023529 2.409412 20.058353 11.023059c14.034824 8.673882 19.034353 13.131294 19.034353 13.131294a24.335059 24.335059 0 0 1 6.144 22.64847l-1.626353 5.300706a59.813647 59.813647 0 0 0 5.601882 41.441883 53.549176 53.549176 0 0 0 30.539294 25.72047l5.300706 1.325177a22.407529 22.407529 0 0 1 15.179294 16.986353s1.204706 6.866824 1.204706 24.214588c0 17.347765-1.144471 24.094118-1.144471 24.094118a22.648471 22.648471 0 0 1-15.179294 16.986353l-4.999529 1.204705a53.609412 53.609412 0 0 0-30.72 26.021647 59.452235 59.452235 0 0 0-5.662118 41.200942l1.505883 5.421176a24.214588 24.214588 0 0 1-6.144 22.648471s-4.939294 4.457412-18.974118 13.131294c-14.034824 8.613647-20.178824 11.023059-20.178824 11.023059a20.720941 20.720941 0 0 1-21.383529-5.541647l-3.493647-4.035765a50.356706 50.356706 0 0 0-72.764235 0l-3.493647 3.975529a20.720941 20.720941 0 0 1-21.38353 5.541647s-6.023529-2.409412-20.118588-11.023058c-13.974588-8.673882-18.974118-13.131294-18.974118-13.131295a24.335059 24.335059 0 0 1-6.204235-22.588235l1.445647-5.24047a59.934118 59.934118 0 0 0-5.601882-41.441883 53.067294 53.067294 0 0 0-30.72-25.901176l-5.059765-1.264941a22.287059 22.287059 0 0 1-15.179294-16.986353s-1.204706-6.806588-1.204706-24.154353l0.120471-6.02353c0.180706-12.890353 1.084235-18.130824 1.084235-18.130823a22.648471 22.648471 0 0 1 15.179294-16.986353l5.12-1.204706a53.187765 53.187765 0 0 0 30.72-25.901177 59.934118 59.934118 0 0 0 5.601882-41.321411l-1.505882-5.421177a24.094118 24.094118 0 0 1 6.204235-22.528s4.939294-4.457412 18.974118-13.191529c14.034824-8.613647 20.118588-11.023059 20.118588-11.023059a20.720941 20.720941 0 0 1 21.443765 5.541647l3.553882 4.096a50.477176 50.477176 0 0 0 72.523294 0.120471l3.614118-4.216471a20.720941 20.720941 0 0 1 21.443765-5.541647z m-56.862117 93.364706a63.247059 63.247059 0 0 0-46.019765 20.35953 71.439059 71.439059 0 0 0-18.913883 48.971294c0 38.369882 29.093647 69.451294 64.933648 69.451294 35.779765 0 64.813176-31.081412 64.873411-69.391059 0-38.369882-29.093647-69.391059-64.873411-69.391059z" fill="#A4CFFE" p-id="7052"></path></svg>
