<?xml version="1.0" standalone="no"?><!DOCTYPE svg PUBLIC "-//W3C//DTD SVG 1.1//EN" "http://www.w3.org/Graphics/SVG/1.1/DTD/svg11.dtd"><svg t="1643335251402" class="icon" viewBox="0 0 1024 1024" version="1.1" xmlns="http://www.w3.org/2000/svg" p-id="7036" xmlns:xlink="http://www.w3.org/1999/xlink" width="200" height="200"><defs><style type="text/css"></style></defs><path d="M475.328 90.752a23.296 23.296 0 0 0-24.96-23.744C201.28 80.768 0.832 289.92 0.832 542.144c0 260.992 214.784 475.776 475.776 475.776 252.864 0 462.08-201.024 475.136-450.752a24 24 0 0 0-23.68-24.96H499.712a23.68 23.68 0 0 1-23.68-23.744l-0.64-427.712z" fill="#007AFF" p-id="7037"></path><path d="M542.784 24.576l-0.64 427.072c0 13.12 10.624 23.68 23.744 24.32l452.032 3.136v-3.136c0-252.224-200.384-461.44-449.536-475.136a24.576 24.576 0 0 0-25.6 23.68z" fill="#A4CFFE" p-id="7038"></path></svg>
