<?xml version="1.0" standalone="no"?><!DOCTYPE svg PUBLIC "-//W3C//DTD SVG 1.1//EN" "http://www.w3.org/Graphics/SVG/1.1/DTD/svg11.dtd"><svg t="1644217895317" class="icon" viewBox="0 0 1024 1024" version="1.1" xmlns="http://www.w3.org/2000/svg" p-id="6918" xmlns:xlink="http://www.w3.org/1999/xlink" width="200" height="200"><defs><style type="text/css"></style></defs><path d="M0.576 794.048a227.84 227.84 0 0 0 227.84 227.712 227.84 227.84 0 0 0 227.904-227.712V566.336H228.48a227.84 227.84 0 0 0-227.904 227.712zM794.368 566.336H566.464v227.712a227.84 227.84 0 0 0 227.904 227.712 227.84 227.84 0 0 0 227.904-227.712 227.84 227.84 0 0 0-227.84-227.712zM228.48 0A227.84 227.84 0 0 0 0.576 227.776a227.84 227.84 0 0 0 227.84 227.712H456.32V227.712A227.84 227.84 0 0 0 228.48 0.064z" fill="#007AFF" p-id="6919"></path><path d="M1022.272 227.712a227.84 227.84 0 0 0-227.84-227.648A227.84 227.84 0 0 0 566.4 227.712v227.712h227.904a227.84 227.84 0 0 0 227.904-227.712z" fill="#A4CFFE" p-id="6920"></path></svg>
