<?xml version="1.0" standalone="no"?><!DOCTYPE svg PUBLIC "-//W3C//DTD SVG 1.1//EN" "http://www.w3.org/Graphics/SVG/1.1/DTD/svg11.dtd"><svg t="1644375842030" class="icon" viewBox="0 0 1024 1024" version="1.1" xmlns="http://www.w3.org/2000/svg" p-id="9646" xmlns:xlink="http://www.w3.org/1999/xlink" width="200" height="200"><defs><style type="text/css"></style></defs><path d="M790.708706 0.180706c22.106353 0 40.056471 17.889882 40.05647 39.996235v493.929412a240.158118 240.158118 0 0 0-259.011764 386.710588l-501.458824-0.180706a39.996235 39.996235 0 0 1-39.996235-39.996235V40.176941C30.298353 18.070588 48.188235 0.180706 70.294588 0.180706h720.414118z" fill="#007AFF" p-id="9647"></path><path d="M750.712471 960.752941a200.101647 200.101647 0 1 1 0-400.263529 200.101647 200.101647 0 0 1 0 400.203294z" fill="#FFFFFF" p-id="9648"></path><path d="M130.349176 160.225882c9.637647 0 17.950118 6.927059 19.696942 16.444236l0.301176 3.614117v119.988706l191.849412 0.060235L456.342588 186.127059l28.310588 28.310588-125.891764 125.891765h-208.414118v40.05647c0 9.456941 8.673882 18.070588 20.781177 19.696942l4.21647 0.301176h315.211294a19.998118 19.998118 0 0 1 3.614118 39.755294l-3.614118 0.301177H175.284706c-33.430588 0-61.680941-23.491765-64.752941-54.512942l-0.301177-5.541647V180.284235a19.998118 19.998118 0 0 1 20.058353-20.058353z" fill="#A4CFFE" p-id="9649"></path><path d="M190.343529 320.331294a39.996235 39.996235 0 1 0 80.112942 0 39.996235 39.996235 0 0 0-80.112942 0zM310.452706 320.331294a39.996235 39.996235 0 1 0 80.052706 0 39.996235 39.996235 0 0 0-80.112941 0zM430.501647 200.282353a39.996235 39.996235 0 1 0 80.052706 0 39.996235 39.996235 0 0 0-80.052706 0z" fill="#FFFFFF" p-id="9650"></path><path d="M750.712471 560.489412a200.101647 200.101647 0 0 1 164.080941 314.729412l65.776941 65.716705a34.996706 34.996706 0 0 1-45.899294 52.705883l-3.614118-3.132236-65.776941-65.837176a200.101647 200.101647 0 1 1-114.567529-364.182588z" fill="#A4CFFE" p-id="9651"></path><path d="M854.979765 667.045647a139.745882 139.745882 0 0 0-104.267294-46.501647 19.998118 19.998118 0 0 0 0 39.996235c28.792471 0 55.597176 12.227765 74.450823 33.249883a19.998118 19.998118 0 1 0 29.816471-26.744471zM130.349176 600.545882h280.094118c13.372235 0 20.058353 6.625882 20.058353 19.998118 0 13.312-6.625882 19.998118-19.998118 19.998118H130.349176c-13.372235 0-20.058353-6.625882-20.058352-19.998118 0-13.372235 6.686118-20.058353 20.058352-20.058353zM130.349176 720.594824h200.101648c13.312 0 19.998118 6.625882 19.998117 19.998117 0 13.312-6.625882 19.998118-19.998117 19.998118H130.349176c-13.372235 0-20.058353-6.625882-20.058352-19.998118 0-13.372235 6.686118-19.998118 20.058352-19.998117z" fill="#FFFFFF" p-id="9652"></path></svg>
