<?xml version="1.0" standalone="no"?><!DOCTYPE svg PUBLIC "-//W3C//DTD SVG 1.1//EN" "http://www.w3.org/Graphics/SVG/1.1/DTD/svg11.dtd"><svg t="1644568383163" class="icon" viewBox="0 0 1024 1024" version="1.1" xmlns="http://www.w3.org/2000/svg" p-id="9646" xmlns:xlink="http://www.w3.org/1999/xlink" width="200" height="200"><defs><style type="text/css"></style></defs><path d="M756.434824 1.204706H262.686118A232.327529 232.327529 0 0 0 30.418824 233.411765v521.818353a232.327529 232.327529 0 0 0 232.267294 232.327529h493.68847a232.327529 232.327529 0 0 0 232.32753-232.327529V233.472A232.267294 232.267294 0 0 0 756.434824 1.144471z" fill="#007AFF" p-id="9647"></path><path d="M337.317647 547.719529v186.970353a48.850824 48.850824 0 1 1-97.822118 0V543.924706a96.015059 96.015059 0 0 1 0-161.792V265.938824a48.850824 48.850824 0 1 1 97.761883 0v112.459294a96.376471 96.376471 0 0 1 0 169.321411zM552.478118 687.164235v47.465412a48.850824 48.850824 0 1 1-97.761883 0v-51.320471a96.015059 96.015059 0 0 1 0-161.731764V265.938824a48.850824 48.850824 0 1 1 97.761883 0v251.964235a96.075294 96.075294 0 0 1 0 169.261176z" fill="#A4CFFE" p-id="9648"></path><path d="M775.830588 547.719529v186.970353a48.850824 48.850824 0 1 1-97.822117 0V543.924706a96.015059 96.015059 0 0 1 0-161.792V265.938824a48.850824 48.850824 0 1 1 97.761882 0v112.459294a96.376471 96.376471 0 0 1 0 169.321411z" fill="#FFFFFF" p-id="9649"></path></svg>
