<?xml version="1.0" standalone="no"?><!DOCTYPE svg PUBLIC "-//W3C//DTD SVG 1.1//EN" "http://www.w3.org/Graphics/SVG/1.1/DTD/svg11.dtd"><svg t="1644391562085" class="icon" viewBox="0 0 1092 1024" version="1.1" xmlns="http://www.w3.org/2000/svg" p-id="9782" xmlns:xlink="http://www.w3.org/1999/xlink" width="213.28125" height="200"><defs><style type="text/css"></style></defs><path d="M700.6208 980.309333H141.312A140.288 140.288 0 0 1 1.365333 840.567467v-489.472C1.365333 158.72 158.72 1.365333 351.0272 1.365333h349.5936c76.936533 0 139.8784 62.941867 139.8784 139.8784v699.255467a140.288 140.288 0 0 1-139.8784 139.8784z" fill="#007AFF" p-id="9783"></path><path d="M176.128 281.053867H1.365333l62.941867-171.349334c10.513067-17.408 24.439467-31.402667 41.915733-41.915733L277.572267 1.365333h3.4816v174.762667a103.082667 103.082667 0 0 1-104.8576 104.925867z" fill="#A4CFFE" p-id="9784"></path><path d="M630.715733 385.979733H176.196267c-17.476267 0-34.952533-17.476267-34.952534-34.952533s13.994667-35.0208 34.952534-35.0208h454.519466a35.0208 35.0208 0 0 1 0 69.973333zM490.837333 560.7424H176.128a35.0208 35.0208 0 0 1 0-69.905067h314.709333c17.476267 0 34.952533 13.994667 34.952534 34.952534 0 21.026133-13.9264 35.0208-34.952534 35.0208z m-69.905066 174.830933H176.196267a35.0208 35.0208 0 0 1 0-69.905066h244.736c17.476267 0 34.952533 13.994667 34.952533 34.952533 0 21.026133-13.994667 34.952533-34.952533 34.952533z" fill="#FFFFFF" p-id="9785"></path><path d="M595.7632 595.7632a244.736 244.736 0 1 0 489.472 0 244.736 244.736 0 0 0-489.472 0z" fill="#A4CFFE" p-id="9786"></path><path d="M840.4992 630.715733c-20.957867 0-34.952533-13.994667-34.952533-34.952533V455.8848a35.0208 35.0208 0 0 1 69.905066 0v139.8784a35.0208 35.0208 0 0 1-34.952533 34.952533z" fill="#FFFFFF" p-id="9787"></path><path d="M805.546667 595.7632c0-21.026133 13.994667-34.952533 34.952533-34.952533h139.8784c17.476267 0 34.952533 13.9264 34.952533 34.952533 0 17.476267-17.476267 34.952533-34.952533 34.952533h-139.946667c-20.8896 0-34.884267-13.994667-34.884266-34.952533z" fill="#FFFFFF" p-id="9788"></path></svg>
