<?xml version="1.0" standalone="no"?><!DOCTYPE svg PUBLIC "-//W3C//DTD SVG 1.1//EN" "http://www.w3.org/Graphics/SVG/1.1/DTD/svg11.dtd"><svg t="1644823172066" class="icon" viewBox="0 0 1024 1024" version="1.1" xmlns="http://www.w3.org/2000/svg" p-id="6959" xmlns:xlink="http://www.w3.org/1999/xlink" width="200" height="200"><defs><style type="text/css"></style></defs><path d="M764.672 980.352H205.248A140.288 140.288 0 0 1 65.28 840.512V350.976C65.344 158.72 222.72 1.344 414.976 1.344h349.696c76.864 0 139.84 62.976 139.84 139.904v699.264a140.288 140.288 0 0 1-139.84 139.84z" fill="#007AFF" p-id="6960"></path><path d="M240.192 281.088H65.28l62.976-171.328c10.496-17.472 24.448-31.488 41.92-41.984L341.568 1.344h3.52v174.848a103.04 103.04 0 0 1-104.96 104.896z" fill="#A4CFFE" p-id="6961"></path><path d="M694.72 385.92H240.192c-17.472 0-34.944-17.408-34.944-34.944 0-17.472 13.952-34.944 34.944-34.944h454.528a35.008 35.008 0 0 1 0 69.952zM554.88 560.832H240.192a35.008 35.008 0 0 1 0-69.888H554.88c17.472 0 34.944 13.952 34.944 34.944 0 20.992-14.016 34.944-34.944 34.944z m-69.952 174.848H240.192a35.008 35.008 0 0 1 0-69.952h244.736c17.472 0 34.944 14.016 34.944 35.008 0 20.928-13.952 34.944-34.944 34.944z" fill="#FFFFFF" p-id="6962"></path></svg>
