<?xml version="1.0" standalone="no"?><!DOCTYPE svg PUBLIC "-//W3C//DTD SVG 1.1//EN" "http://www.w3.org/Graphics/SVG/1.1/DTD/svg11.dtd"><svg t="1644572548724" class="icon" viewBox="0 0 1031 1024" version="1.1" xmlns="http://www.w3.org/2000/svg" p-id="9779" xmlns:xlink="http://www.w3.org/1999/xlink" width="201.3671875" height="200"><defs><style type="text/css"></style></defs><path d="M511.36 0.96A495.872 495.872 0 0 0 0.896 510.592a519.232 519.232 0 0 0 510.336 510.336 510.016 510.016 0 1 0 0-1019.968z" fill="#007AFF" p-id="9780"></path><path d="M868.48 631.808l-50.944-56.768H664.32L568.704 465.984 409.216 625.472l101.76 140.288v127.616a383.36 383.36 0 0 1-382.08-382.72 352.384 352.384 0 0 1 38.272-165.248L384 555.328l127.552-126.976-25.536-172.224L403.2 179.52l44.608-44.608a176.64 176.64 0 0 1 57.408-6.4 383.552 383.552 0 0 1 382.784 382.08 371.52 371.52 0 0 1-19.84 121.216h0.384z" fill="#A4CFFE" p-id="9781"></path></svg>
